# xmcd
#
# Track frame offsets:
#	225
#	18966
#	34924
#	51769
#	67954
#	83746
#	102106
#	121226
#	138033
#	157528
#	169793
#	188571
#
# Disc length: 2709 seconds
#
# Revision: 1
# Processed by: cddbd v1.5.2PL0 Copyright (c) Steve Scherf et al.
# Submitted via: audiograbber 1.83.01
#
DISCID=840a920c
DTITLE=Tracy Wells - Right Here In Tennessee
DYEAR=1900
DGENRE=
TTITLE0=Carrick Fergus
TTITLE1=The Girl From Central High
TTITLE2=The Rose
TTITLE3=Wild Side Of Life
TTITLE4=Right Here In Tennessee
TTITLE5=Don´t Tuch Me There
TTITLE6=Mama´s Gentle Arms
TTITLE7=Blame It On Your Heart
TTITLE8=Crazy
TTITLE9=Thisttime Is The Last Time
TTITLE10=Love Can Build A Bridge
TTITLE11=The Calling, Home
EXTD=
EXTT0=
EXTT1=
EXTT2=
EXTT3=
EXTT4=
EXTT5=
EXTT6=
EXTT7=
EXTT8=
EXTT9=
EXTT10=
EXTT11=
PLAYORDER=
